<?xml version="1.0" encoding="UTF-8"?>
<!-- Created with Grafika (https://www.grafika.cc/) -->
<svg xmlns="http://www.w3.org/2000/svg" xmlns:svg="http://www.w3.org/2000/svg" xmlns:xlink="http://www.w3.org/1999/xlink" width="24.54" height="24" viewBox="0 0 24.54 24" preserveAspectRatio="xMidYMid meet">
	<defs>
		<linearGradient gradientUnits="userSpaceOnUse" gradientTransform="matrix(215.53016662597656, 0, 0, 215.70376586914062, 215.875, 216.046875)" spreadMethod="pad" id="gradient_1" x1="-1" y1="0" x2="1" y2="0">
			<stop offset="0%" stop-color="#00600C" />
			<stop offset="100%" stop-color="#00FF00" />
		</linearGradient>
		<clipPath id="mask_3">
			<rect x="-9.14" y="-9.14" width="18.29" height="18.29" />
		</clipPath>
	</defs>
	<g transform="matrix(1, 0, 0, 1, 12.935188293457031, 11.857694625854492)">
		<g transform="matrix(0.0556766614317894, 0, 0, 0.0556318499147892, -12.4136962890625, -11.876708984375)">
			<path d="M202.5,431.51 C201.4,431.3 195.55,430.6 189.5,429.95 C163.43,427.12 124,414.18 124,408.45 C124,389.62 143.71,360.07 172.35,335.95 C205.66,307.92 216.94,297.34 227.25,284.5 C258.35,245.73 255.76,214.07 221.26,211.29 L214.01,210.71 L209.13,215.28 C200.5,223.35 195.2,225.42 163.7,232.97 C135.83,239.65 127.2,251.43 146.56,256.37 C153.34,258.1 153.11,259.48 145.43,262.96 C131.13,269.44 123.42,271.36 111.34,271.43 L100.18,271.5 L95.85,268.46 C84.81,260.71 81.87,238.66 88.72,215 C90.9,207.46 91.54,207.1 92.9,212.69 C94.81,220.58 96.09,222.98 98.71,223.64 C105.74,225.41 114.28,209.33 120.83,182 C123.5,170.88 127.06,163.29 133.2,155.69 C139.01,148.5 138.37,149.93 146.61,125.8 C152.6,108.25 157.38,89.67 160.06,73.5 C161.63,64.03 161.84,63.44 163.14,64.74 C165.17,66.77 167.02,78.56 167.64,93.5 C167.98,101.75 168.6,109.14 169.02,109.92 C170.77,113.23 194.67,71.35 204.49,47.75 C215.06,22.34 206.78,79.42 194.33,117.74 C191.04,127.86 191.17,128 200.91,124.71 C217.94,118.96 232.65,116.74 254.5,116.61 C274.37,116.5 278.2,117.14 272.93,119.67 C271.59,120.31 265.66,123.1 259.75,125.88 C247.93,131.42 246.91,132.61 253.25,133.42 C292.05,138.36 303.62,141.57 326.75,153.77 C338.41,159.92 338.1,160.14 335,147.99 C314.15,66.33 230.42,7.76 147.49,16.82 C141.5,17.47 136.22,17.62 135.76,17.16 C134.53,15.93 149.72,10.19 163,6.89 C299.48,-27.11 431.28,75.57 431.4,216 C431.5,323.05 353.75,413.19 247.22,429.55 C238.09,430.95 206.89,432.32 202.5,431.51 ZM114.27,234.39 C117.83,230.94 118.32,229 115.63,229 C113.37,229 111.01,231.44 110.07,234.75 C108.88,238.91 109.69,238.84 114.27,234.39 ZM143.66,187.75 C157.12,167.56 158.65,161.32 147.89,170.5 C144.99,172.98 142.23,175 141.76,175 C140.05,175 138,182.07 138,187.97 C138,195.5 138.51,195.48 143.66,187.75 ZM97.97,396.33 C5.94,334.14 -25.84,216.18 23.42,119.64 C31.9,103.03 35,98.03 36.86,98.01 C37.6,98.01 37.98,98.56 37.69,99.25 C27.63,123.1 24.3,140.57 25.36,164 C27.73,216.16 57.34,262.68 102.98,285.95 C123.03,296.17 138.08,300.13 164.78,302.22 C175.1,303.02 179.98,303.77 179.78,304.53 C179.47,305.78 169.29,314.77 156.09,325.46 C129.07,347.35 110.64,371.23 104.52,392.27 C102.74,398.4 101.85,398.95 97.97,396.33 Z" style="fill:url(#gradient_1);" />
			<path d="M202,430.43 C172.82,427.08 159.25,423.94 136.5,415.27 C123.85,410.44 124.06,410.77 126.75,400.36 C132.6,377.74 148.74,356.47 179,331.5 C209.26,306.53 225.38,290.33 236.09,274.14 C259.13,239.3 252.8,212.44 221.03,210.26 L213.31,209.74 L207.51,214.99 C199.67,222.09 194.34,224.31 171.25,230.09 C147.41,236.05 143.64,237.43 139.33,241.73 C133.35,247.71 136.14,254.75 145.42,257.08 C151.6,258.64 151.32,259.09 141.55,263.34 C100.51,281.16 81.36,268.42 87.41,227.32 C88.31,221.17 89.67,214.94 90.42,213.49 L91.8,210.84 L92.46,214.75 C93.49,220.87 96.45,225 99.79,225 C106.97,225 114.88,209.93 121.04,184.5 C123.85,172.94 128.44,162.97 134.28,155.81 C142.72,145.47 156.07,104.64 161.13,73.73 C161.91,68.93 162.7,66.49 163.18,67.36 C164.75,70.17 167,89.28 167,99.87 C167,114.75 168.17,115.67 174.57,105.8 C185.93,88.29 196.94,68.09 204.17,51.5 C208.16,42.33 208.81,41.81 208.25,48.19 C206.71,65.96 199.38,99.8 193.04,118.45 C189.34,129.32 189.71,129.82 199.11,126.49 C217.45,119.99 229.81,117.93 253.5,117.43 L275.5,116.96 L268,120.46 C252.39,127.74 246.35,131.69 248.12,133.45 C248.42,133.75 253.58,134.48 259.58,135.06 C285.84,137.62 306.89,143.83 326.93,154.96 C338.34,161.29 338.43,161.29 337.57,154.83 C332.63,117.6 299.78,69.7 262.56,45.46 C227.12,22.38 172.5,9.48 140,16.5 C136.07,17.35 145.84,13.03 152.5,10.97 C244.87,-17.6 346.24,19.9 397.55,101.62 C480.02,232.98 400.56,405.44 246.95,428.51 C236.77,430.04 208.96,431.22 202,430.43 ZM118.14,233 C119.94,233 118.91,229.11 116.95,228.48 C114.07,227.57 110.31,230.33 108.47,234.72 C105.9,240.87 107.39,241.71 112.64,237.08 C115.19,234.84 117.67,233 118.14,233 ZM144.24,188.74 C153.26,175.95 158.5,164 155.1,164 C154.6,164 150.62,166.89 146.24,170.42 L138.29,176.85 L137.59,185.43 C136.56,198.17 137.32,198.55 144.24,188.74 ZM96.49,394.32 C3.44,331.66 -25.23,210.23 29.37,110.13 C35.1,99.62 36.36,99.15 32.52,108.95 C24.73,128.82 21.98,162.69 26.39,184.5 C40.38,253.82 94.19,299.22 167.55,303.61 C173.81,303.98 178.72,304.64 178.46,305.06 C178.2,305.48 171.35,311.35 163.24,318.1 C128.48,347.03 111.37,367.8 104.44,389.46 C101.81,397.69 101.64,397.79 96.49,394.32 Z" style="fill:#000000;" />
		</g>
		<g transform="matrix(1.3124558925628662, 0, 0, 1.3124558925628662, -0.9351882934570312, 0.1423053741455078)" clip-path="url(#mask_3)" />
	</g>
</svg>