<svg xmlns="http://www.w3.org/2000/svg" width="35" height="35" viewBox="0 0 35 35"><defs><filter primitiveUnits="userSpaceOnUse" id="a"><feDropShadow dx="0" dy="0" flood-color="#00FF88CC" stdDeviation="1.5" result="shadow"/></filter></defs><g transform="translate(17.5 17.5)"><rect transform="translate(.002 -.002)scale(.32279)" x="-52.67" y="-52.67" width="105.33" height="105.33" rx="30.98" ry="30.98" style="fill:#000"/><path transform="translate(-17.5 -17.5)" d="M16.44 33.48c-2.18-.25-3.2-.48-4.89-1.12-.94-.37-.92-.34-.73-1.12.44-1.68 1.65-3.28 3.9-5.13 2.26-1.87 3.46-3.08 4.26-4.28 1.72-2.6 1.25-4.6-1.12-4.76l-.58-.04-.43.38c-.58.54-.99.7-2.71 1.13-1.78.45-2.05.56-2.38.87-.45.45-.24.98.46 1.15.46.12.43.14-.29.46-3.07 1.33-4.49.38-4.04-2.69.07-.44.17-.92.22-1.02l.11-.2.05.29c.07.46.29.76.54.76.54 0 1.13-1.11 1.59-3.01.21-.87.55-1.6.99-2.14.63-.78 1.62-3.82 2-6.12.05-.36.12-.54.16-.47.11.21.27 1.63.27 2.42 0 1.1.09 1.18.57.44.85-1.31 1.67-2.81 2.21-4.05.3-.68.34-.72.3-.25-.1 1.33-.66 3.86-1.13 5.24-.28.81-.25.85.45.6 1.36-.48 2.3-.64 4.06-.67l1.65-.04-.57.27c-1.16.53-1.62.82-1.49.96.03.02.41.07.86.11 1.96.2 3.54.66 5.02 1.49.86.47.87.47.81 0-.37-2.77-2.83-6.35-5.61-8.16-2.64-1.72-6.71-2.68-9.14-2.15-.29.05.43-.27.93-.42 6.9-2.14 14.46.67 18.29 6.76 6.16 9.79.22 22.65-11.24 24.37-.76.11-2.84.2-3.35.14m-6.26-14.71c.13 0 .06-.29-.09-.34-.21-.07-.49.13-.64.46-.18.46-.07.52.32.18.18-.17.38-.3.41-.3m1.95-3.3c.67-.96 1.06-1.85.81-1.85-.04 0-.34.22-.66.48l-.6.47-.04.65c-.08.94-.03.97.49.25M8.56 30.79c-6.93-4.67-9.08-13.72-5-21.19.42-.78.51-.82.24-.08-.59 1.47-.79 4-.46 5.63 1.04 5.17 5.05 8.55 10.52 8.88.48.03.84.08.82.11-.02.02-.53.47-1.13.97-2.6 2.16-3.87 3.71-4.4 5.31-.18.62-.2.62-.59.37" style="fill:#0f8;filter:url(#a)"/></g></svg>
