<?xml version="1.0" encoding="UTF-8"?>
<!-- Created with Grafika (https://www.grafika.cc/) -->
<svg xmlns="http://www.w3.org/2000/svg" xmlns:svg="http://www.w3.org/2000/svg" xmlns:xlink="http://www.w3.org/1999/xlink" width="25" height="25" viewBox="0 0 25 25" preserveAspectRatio="xMidYMid meet">
	<defs>
		<linearGradient gradientUnits="userSpaceOnUse" gradientTransform="matrix(-228.3074188232422, 228.4952392578125, -228.68357849121094, -228.49526977539062, 216.2427215576172, 216.0747833251953)" spreadMethod="pad" id="gradient_1" x1="-1" y1="0" x2="1" y2="0">
			<stop offset="0%" stop-color="#000000" />
			<stop offset="100%" stop-color="#00FF00" />
		</linearGradient>
	</defs>
	<g transform="matrix(1, 0, 0, 1, 11.880807876586914, 12.403735160827637)">
		<g transform="matrix(0.9783505797386169, 0, 0, 0.9783505797386169, 0.6191921234130859, 0.09626520425081253)">
			<path transform="matrix(0.05596228316426277, 0, 0, 0.05591627210378647, -12.101435661315918, -12.082100868225098)" d="M202,430.43 C172.82,427.08 159.25,423.94 136.5,415.27 C123.85,410.44 124.06,410.77 126.75,400.36 C132.6,377.74 148.74,356.47 179,331.5 C209.26,306.53 225.38,290.33 236.09,274.14 C259.13,239.3 252.8,212.44 221.03,210.26 L213.31,209.74 L207.51,214.99 C199.67,222.09 194.34,224.31 171.25,230.09 C147.41,236.05 143.64,237.43 139.33,241.73 C133.35,247.71 136.14,254.75 145.42,257.08 C151.6,258.64 151.32,259.09 141.55,263.34 C100.51,281.16 81.36,268.42 87.41,227.32 C88.31,221.17 89.67,214.94 90.42,213.49 L91.8,210.84 L92.46,214.75 C93.49,220.87 96.45,225 99.79,225 C106.97,225 114.88,209.93 121.04,184.5 C123.85,172.94 128.44,162.97 134.28,155.81 C142.72,145.47 156.07,104.64 161.13,73.73 C161.91,68.93 162.7,66.49 163.18,67.36 C164.75,70.17 167,89.28 167,99.87 C167,114.75 168.17,115.67 174.57,105.8 C185.93,88.29 196.94,68.09 204.17,51.5 C208.16,42.33 208.81,41.81 208.25,48.19 C206.71,65.96 199.38,99.8 193.04,118.45 C189.34,129.32 189.71,129.82 199.11,126.49 C217.45,119.99 229.81,117.93 253.5,117.43 L275.5,116.96 L268,120.46 C252.39,127.74 246.35,131.69 248.12,133.45 C248.42,133.75 253.58,134.48 259.58,135.06 C285.84,137.62 306.89,143.83 326.93,154.96 C338.34,161.29 338.43,161.29 337.57,154.83 C332.63,117.6 299.78,69.7 262.56,45.46 C227.12,22.38 172.5,9.48 140,16.5 C136.07,17.35 145.84,13.03 152.5,10.97 C244.87,-17.6 346.24,19.9 397.55,101.62 C480.02,232.98 400.56,405.44 246.95,428.51 C236.77,430.04 208.96,431.22 202,430.43 ZM118.14,233 C119.94,233 118.91,229.11 116.95,228.48 C114.07,227.57 110.31,230.33 108.47,234.72 C105.9,240.87 107.39,241.71 112.64,237.08 C115.19,234.84 117.67,233 118.14,233 ZM144.24,188.74 C153.26,175.95 158.5,164 155.1,164 C154.6,164 150.62,166.89 146.24,170.42 L138.29,176.85 L137.59,185.43 C136.56,198.17 137.32,198.55 144.24,188.74 ZM96.49,394.32 C3.44,331.66 -25.23,210.23 29.37,110.13 C35.1,99.62 36.36,99.15 32.52,108.95 C24.73,128.82 21.98,162.69 26.39,184.5 C40.38,253.82 94.19,299.22 167.55,303.61 C173.81,303.98 178.72,304.64 178.46,305.06 C178.2,305.48 171.35,311.35 163.24,318.1 C128.48,347.03 111.37,367.8 104.44,389.46 C101.81,397.69 101.64,397.79 96.49,394.32 Z" style="fill:url(#gradient_1);stroke:#000000;stroke-linecap:round;stroke-linejoin:round;stroke-width:2.19;" />
		</g>
	</g>
</svg>