<svg xmlns="http://www.w3.org/2000/svg" viewBox="0 0 30 30" fill="#00ff88">
  <defs>
    <filter id="subtle-neon-glow" x="-20%" y="-20%" width="140%" height="140%">
      <feDropShadow dx="0" dy="0" stdDeviation="1.5" flood-color="#00ff88" flood-opacity="0.8"/>
    </filter>
  </defs>
  <path filter="url(#subtle-neon-glow)" d="M 12.608 25.564 C 10.953 25.374 10.183 25.196 8.893 24.705 C 8.175 24.431 8.187 24.45 8.34 23.86 C 8.672 22.578 9.587 21.372 11.303 19.957 C 13.02 18.542 13.934 17.624 14.542 16.707 C 15.848 14.732 15.489 13.21 13.687 13.086 L 13.249 13.057 L 12.921 13.354 C 12.476 13.757 12.174 13.883 10.864 14.21 C 9.512 14.548 9.298 14.626 9.053 14.87 C 8.714 15.209 8.872 15.608 9.399 15.74 C 9.749 15.828 9.733 15.854 9.179 16.094 C 6.851 17.104 5.765 16.382 6.108 14.053 C 6.16 13.705 6.237 13.352 6.279 13.269 L 6.357 13.119 L 6.395 13.341 C 6.453 13.688 6.621 13.922 6.811 13.922 C 7.218 13.922 7.667 13.068 8.016 11.626 C 8.175 10.971 8.436 10.406 8.767 10 C 9.246 9.414 10.003 7.1 10.29 5.349 C 10.334 5.077 10.379 4.938 10.406 4.988 C 10.495 5.147 10.623 6.23 10.623 6.83 C 10.623 7.673 10.689 7.726 11.052 7.166 C 11.696 6.174 12.321 5.029 12.731 4.089 C 12.957 3.569 12.994 3.54 12.962 3.901 C 12.875 4.908 12.459 6.826 12.1 7.883 C 11.89 8.499 11.911 8.527 12.444 8.339 C 13.484 7.97 14.185 7.854 15.529 7.825 L 16.777 7.799 L 16.351 7.997 C 15.466 8.41 15.123 8.633 15.224 8.733 C 15.241 8.75 15.534 8.792 15.874 8.824 C 17.363 8.97 18.557 9.321 19.694 9.952 C 20.341 10.311 20.346 10.311 20.297 9.945 C 20.017 7.835 18.154 5.12 16.043 3.747 C 14.033 2.439 10.935 1.707 9.091 2.105 C 8.868 2.153 9.423 1.909 9.8 1.792 C 15.04 0.173 20.789 2.298 23.7 6.929 C 28.377 14.374 23.87 24.148 15.158 25.455 C 14.58 25.542 13.003 25.609 12.608 25.564 Z M 7.851 14.375 C 7.954 14.375 7.895 14.155 7.784 14.119 C 7.621 14.067 7.407 14.224 7.303 14.472 C 7.157 14.821 7.242 14.869 7.539 14.606 C 7.684 14.479 7.825 14.375 7.851 14.375 Z M 9.332 11.867 C 9.843 11.142 10.141 10.465 9.948 10.465 C 9.919 10.465 9.694 10.628 9.445 10.828 L 8.994 11.193 L 8.955 11.679 C 8.896 12.401 8.939 12.423 9.332 11.867 Z M 6.623 23.518 C 1.346 19.966 -0.28 13.085 2.816 7.412 C 3.141 6.816 3.213 6.789 2.995 7.345 C 2.553 8.471 2.397 10.39 2.647 11.626 C 3.441 15.555 6.493 18.128 10.654 18.377 C 11.009 18.398 11.288 18.435 11.273 18.459 C 11.258 18.483 10.87 18.815 10.41 19.198 C 8.438 20.837 7.467 22.015 7.074 23.242 C 6.925 23.709 6.916 23.714 6.623 23.518 Z"/>
</svg>
